<svg xmlns="http://www.w3.org/2000/svg" xmlns:xlink="http://www.w3.org/1999/xlink" version="1.1" width="940" height="788" viewBox="0 0 940 788" xml:space="preserve">
<desc>Created with Fabric.js 3.5.0</desc>
<defs>
</defs>
<rect x="0" y="0" width="100%" height="100%" fill="rgba(255,255,255,0)"/>
<g transform="matrix(1.7275 0 0 1.7275 471.3354 391.5779)" id="520865">
<g style="" vector-effect="non-scaling-stroke">
		<g transform="matrix(1 0 0 1 -8.0945 7.5925)" id="Capa_1">
<path style="stroke: none; stroke-width: 1; stroke-dasharray: none; stroke-linecap: butt; stroke-dashoffset: 0; stroke-linejoin: miter; stroke-miterlimit: 4; is-custom-font: none; font-file-url: none; fill: rgb(212,183,131); fill-rule: nonzero; opacity: 1;" transform=" translate(-200.401, -216.088)" d="M 344.649 204.32 c -7.807 3.62 -16.314 5.501 -25.067 5.503 c -10.392 0.001 -20.665 -2.759 -29.711 -7.982 c -16.886 -9.749 -27.772 -27.175 -29.52 -46.218 c -19.143 -1.749 -36.518 -12.726 -46.216 -29.523 c -9.747 -16.882 -10.465 -37.41 -2.462 -54.773 c -12.251 -8.607 -20.792 -21.491 -23.926 -36.143 c -41.698 1.338 -79.982 16.399 -110.502 40.79 c 7.997 7.752 12.731 18.522 12.731 30.139 c 0 14.868 -7.772 27.946 -19.461 35.412 c -6.518 4.163 -14.248 6.588 -22.539 6.588 c -5.841 0 -11.538 -1.211 -16.78 -3.498 c -0.026 0.027 -0.052 0.053 -0.078 0.08 c -1.962 5.439 -3.673 10.997 -5.136 16.655 C 22.086 176.423 20 192.219 20 208.496 c 0 103.937 84.559 188.496 188.495 188.496 c 41.112 0 79.18 -13.243 110.192 -35.67 c 0.654 -0.587 1.493 -1.204 2.467 -1.842 c 11.615 -8.688 22.217 -18.658 31.549 -29.74 c -10.812 -7.738 -17.66 -20.402 -17.66 -34.193 c 0 -9.15 2.95 -17.619 7.937 -24.526 c 7.339 -10.164 19.105 -16.916 32.449 -17.425 c 0.523 -0.029 1.057 -0.049 1.615 -0.049 c 0.404 0 0.807 0.014 1.21 0.026 c 1.405 -8.275 2.272 -16.73 2.548 -25.333 C 366.147 225.109 353.26 216.57 344.649 204.32 z M 132.435 334.871 c -13.093 0 -24.803 -6.025 -32.512 -15.445 c -6.215 -7.325 -9.976 -16.795 -9.976 -27.131 c 0 -23.159 18.841 -42 42 -42 c 13.093 0 24.804 6.025 32.512 15.445 c 6.215 7.325 9.976 16.795 9.976 27.131 C 174.435 316.03 155.595 334.871 132.435 334.871 z M 160.194 183.688 c -13.093 0 -24.803 -6.025 -32.512 -15.445 c -6.215 -7.325 -9.976 -16.795 -9.976 -27.131 c 0 -23.159 18.841 -42 42 -42 c 13.093 0 24.803 6.025 32.512 15.445 c 6.215 7.325 9.976 16.795 9.976 27.131 C 202.194 164.846 183.354 183.688 160.194 183.688 z M 246.963 314.835 c -16.814 0 -31.855 -7.727 -41.767 -19.815 c -7.929 -9.401 -12.721 -21.53 -12.721 -34.762 c 0 -29.776 24.225 -54 54 -54 c 16.814 0 31.855 7.727 41.767 19.815 c 7.929 9.401 12.721 21.53 12.721 34.762 C 300.963 290.611 276.738 314.835 246.963 314.835 z" stroke-linecap="round"/>
</g>
		<g transform="matrix(1 0 0 1 -48.7895 -67.3845)" id="Capa_1">
<path style="stroke: none; stroke-width: 1; stroke-dasharray: none; stroke-linecap: butt; stroke-dashoffset: 0; stroke-linejoin: miter; stroke-miterlimit: 4; is-custom-font: none; font-file-url: none; fill: rgb(137,99,74); fill-rule: nonzero; opacity: 1;" transform=" translate(-159.706, -141.111)" d="M 159.706 163.111 c 12.131 0 22 -9.869 22 -22 c 0 -12.131 -9.869 -22 -22 -22 c -12.131 0 -22 9.869 -22 22 C 137.706 153.242 147.576 163.111 159.706 163.111 z" stroke-linecap="round"/>
</g>
		<g transform="matrix(1 0 0 1 -76.5475 83.7995)" id="Capa_1">
<path style="stroke: none; stroke-width: 1; stroke-dasharray: none; stroke-linecap: butt; stroke-dashoffset: 0; stroke-linejoin: miter; stroke-miterlimit: 4; is-custom-font: none; font-file-url: none; fill: rgb(137,99,74); fill-rule: nonzero; opacity: 1;" transform=" translate(-131.948, -292.295)" d="M 131.948 314.295 c 12.131 0 22 -9.869 22 -22 c 0 -12.131 -9.869 -22 -22 -22 c -12.131 0 -22 9.869 -22 22 C 109.948 304.426 119.817 314.295 131.948 314.295 z" stroke-linecap="round"/>
</g>
		<g transform="matrix(1 0 0 1 -154.024 -99.682)" id="Capa_1">
<path style="stroke: none; stroke-width: 1; stroke-dasharray: none; stroke-linecap: butt; stroke-dashoffset: 0; stroke-linejoin: miter; stroke-miterlimit: 4; is-custom-font: none; font-file-url: none; fill: rgb(137,99,74); fill-rule: nonzero; opacity: 1;" transform=" translate(-54.4715, -108.8135)" d="M 69.977 106.111 c 0 -6.503 -2.838 -12.494 -7.563 -16.596 c -9.154 11.218 -17.041 23.505 -23.448 36.643 c 2.809 1.265 5.866 1.954 9.011 1.954 C 60.108 128.111 69.977 118.242 69.977 106.111 z" stroke-linecap="round"/>
</g>
		<g transform="matrix(1 0 0 1 161.46 85.1675)" id="Capa_1">
<path style="stroke: none; stroke-width: 1; stroke-dasharray: none; stroke-linecap: butt; stroke-dashoffset: 0; stroke-linejoin: miter; stroke-miterlimit: 4; is-custom-font: none; font-file-url: none; fill: rgb(137,99,74); fill-rule: nonzero; opacity: 1;" transform=" translate(-369.9555, -293.663)" d="M 355.043 295.546 c 0 7.423 3.79 14.218 9.724 18.234 c 8.124 -12.02 14.894 -25.024 20.101 -38.79 c -2.469 -0.943 -5.101 -1.444 -7.825 -1.444 C 364.913 273.546 355.043 283.415 355.043 295.546 z" stroke-linecap="round"/>
</g>
		<g transform="matrix(1 0 0 1 37.9795 51.7635)" id="Capa_1">
<path style="stroke: none; stroke-width: 1; stroke-dasharray: none; stroke-linecap: butt; stroke-dashoffset: 0; stroke-linejoin: miter; stroke-miterlimit: 4; is-custom-font: none; font-file-url: none; fill: rgb(137,99,74); fill-rule: nonzero; opacity: 1;" transform=" translate(-246.475, -260.259)" d="M 246.475 294.259 c 18.748 0 34 -15.253 34 -34 c 0 -18.748 -15.252 -34 -34 -34 c -18.748 0 -34 15.252 -34 34 C 212.475 279.006 227.727 294.259 246.475 294.259 z" stroke-linecap="round"/>
</g>
		<g transform="matrix(1 0 0 1 -43.5575 -59.374)" id="Capa_1">
<path style="stroke: none; stroke-width: 1; stroke-dasharray: none; stroke-linecap: butt; stroke-dashoffset: 0; stroke-linejoin: miter; stroke-miterlimit: 4; is-custom-font: none; font-file-url: none; fill: rgb(137,99,74); fill-rule: nonzero; opacity: 1;" transform=" translate(-164.938, -149.1215)" d="M 192.218 114.556 c 5.926 7.242 9.488 16.489 9.488 26.555 c 0 23.159 -18.841 42 -42 42 c -12.822 0 -24.314 -5.782 -32.024 -14.869 c 7.708 9.42 19.419 15.445 32.512 15.445 c 23.159 0 42 -18.841 42 -42 C 202.194 131.351 198.434 121.881 192.218 114.556 z" stroke-linecap="round"/>
</g>
		<g transform="matrix(1 0 0 1 -71.3155 91.81)" id="Capa_1">
<path style="stroke: none; stroke-width: 1; stroke-dasharray: none; stroke-linecap: butt; stroke-dashoffset: 0; stroke-linejoin: miter; stroke-miterlimit: 4; is-custom-font: none; font-file-url: none; fill: rgb(137,99,74); fill-rule: nonzero; opacity: 1;" transform=" translate(-137.18, -300.3055)" d="M 173.948 292.295 c 0 23.159 -18.841 42 -42 42 c -12.822 0 -24.314 -5.782 -32.024 -14.869 c 7.709 9.42 19.419 15.445 32.512 15.445 c 23.159 0 42 -18.841 42 -42 c 0 -10.337 -3.761 -19.806 -9.976 -27.131 C 170.385 272.982 173.948 282.229 173.948 292.295 z" stroke-linecap="round"/>
</g>
		<g transform="matrix(1 0 0 1 44.584 61.9595)" id="Capa_1">
<path style="stroke: none; stroke-width: 1; stroke-dasharray: none; stroke-linecap: butt; stroke-dashoffset: 0; stroke-linejoin: miter; stroke-miterlimit: 4; is-custom-font: none; font-file-url: none; fill: rgb(137,99,74); fill-rule: nonzero; opacity: 1;" transform=" translate(-253.0795, -270.455)" d="M 300.475 260.259 c 0 29.776 -24.225 54 -54 54 c -16.543 0 -31.365 -7.485 -41.279 -19.238 c 9.911 12.087 24.952 19.815 41.767 19.815 c 29.775 0 54 -24.224 54 -54 c 0 -13.232 -4.792 -25.361 -12.721 -34.762 C 295.882 235.391 300.475 247.297 300.475 260.259 z" stroke-linecap="round"/>
</g>
		<g transform="matrix(1 0 0 1 -48.7895 -67.3845)" id="Capa_1">
<path style="stroke: none; stroke-width: 1; stroke-dasharray: none; stroke-linecap: butt; stroke-dashoffset: 0; stroke-linejoin: miter; stroke-miterlimit: 4; is-custom-font: none; font-file-url: none; fill: rgb(0,0,0); fill-rule: nonzero; opacity: 1;" transform=" translate(-159.706, -141.111)" d="M 159.706 183.111 c 23.159 0 42 -18.841 42 -42 c 0 -10.066 -3.562 -19.313 -9.488 -26.555 c -7.708 -9.42 -19.418 -15.445 -32.512 -15.445 c -23.159 0 -42 18.841 -42 42 c 0 10.337 3.761 19.806 9.976 27.131 C 135.393 177.329 146.884 183.111 159.706 183.111 z M 159.706 119.111 c 12.131 0 22 9.869 22 22 c 0 12.131 -9.869 22 -22 22 c -12.131 0 -22 -9.869 -22 -22 C 137.706 128.98 147.576 119.111 159.706 119.111 z" stroke-linecap="round"/>
</g>
		<g transform="matrix(1 0 0 1 -76.5475 83.7995)" id="Capa_1">
<path style="stroke: none; stroke-width: 1; stroke-dasharray: none; stroke-linecap: butt; stroke-dashoffset: 0; stroke-linejoin: miter; stroke-miterlimit: 4; is-custom-font: none; font-file-url: none; fill: rgb(0,0,0); fill-rule: nonzero; opacity: 1;" transform=" translate(-131.948, -292.295)" d="M 131.948 334.295 c 23.159 0 42 -18.841 42 -42 c 0 -10.066 -3.562 -19.313 -9.488 -26.555 c -7.708 -9.42 -19.419 -15.445 -32.512 -15.445 c -23.159 0 -42 18.841 -42 42 c 0 10.337 3.761 19.806 9.976 27.131 C 107.634 328.513 119.125 334.295 131.948 334.295 z M 131.948 270.295 c 12.131 0 22 9.869 22 22 c 0 12.131 -9.869 22 -22 22 c -12.131 0 -22 -9.869 -22 -22 C 109.948 280.164 119.817 270.295 131.948 270.295 z" stroke-linecap="round"/>
</g>
		<g transform="matrix(1 0 0 1 0.0005 0.0005)" id="Capa_1">
<path style="stroke: none; stroke-width: 1; stroke-dasharray: none; stroke-linecap: butt; stroke-dashoffset: 0; stroke-linejoin: miter; stroke-miterlimit: 4; is-custom-font: none; font-file-url: none; fill: rgb(0,0,0); fill-rule: nonzero; opacity: 1;" transform=" translate(-208.496, -208.496)" d="M 416.97 206.596 l -0.013 -0.831 c -0.064 -5.279 -4.222 -9.598 -9.494 -9.864 c -14.875 -0.751 -28.007 -9.639 -34.27 -23.193 c -1.245 -2.694 -3.623 -4.696 -6.489 -5.465 c -2.867 -0.769 -5.927 -0.224 -8.353 1.487 c -6.706 4.73 -14.927 7.335 -23.146 7.336 c -6.964 0 -13.857 -1.854 -19.935 -5.363 c -13.458 -7.77 -21.242 -22.803 -19.83 -38.299 c 0.269 -2.956 -0.789 -5.879 -2.888 -7.977 c -2.1 -2.1 -5.033 -3.154 -7.977 -2.889 c -1.195 0.109 -2.411 0.164 -3.614 0.164 c -14.272 0 -27.562 -7.662 -34.683 -19.996 c -7.77 -13.458 -6.994 -30.369 1.976 -43.084 c 1.711 -2.425 2.257 -5.485 1.488 -8.352 c -0.768 -2.867 -2.77 -5.245 -5.464 -6.49 c -13.548 -6.262 -22.434 -19.387 -23.189 -34.254 c -0.268 -5.269 -4.583 -9.424 -9.858 -9.492 l -0.816 -0.013 C 209.777 0.01 209.137 0 208.496 0 C 93.531 0 0.001 93.531 0.001 208.496 s 93.53 208.496 208.495 208.496 s 208.495 -93.531 208.495 -208.496 C 416.991 207.861 416.981 207.229 416.97 206.596 z M 62.414 89.515 c 4.725 4.102 7.563 10.093 7.563 16.596 c 0 12.131 -9.869 22 -22 22 c -3.145 0 -6.202 -0.689 -9.011 -1.954 C 45.373 113.02 53.26 100.733 62.414 89.515 z M 364.768 313.781 c -5.935 -4.016 -9.724 -10.811 -9.724 -18.234 c 0 -12.131 9.869 -22 22 -22 c 2.725 0 5.356 0.501 7.825 1.444 C 379.662 288.757 372.892 301.761 364.768 313.781 z M 390.948 255.926 c -4.067 -1.428 -8.354 -2.227 -12.695 -2.354 c -0.403 -0.012 -0.806 -0.026 -1.21 -0.026 c -0.542 0 -1.077 0.029 -1.615 0.049 c -13.344 0.509 -25.11 7.26 -32.449 17.425 c -4.987 6.906 -7.937 15.376 -7.937 24.526 c 0 13.791 6.848 26.454 17.66 34.193 c -9.332 11.082 -19.935 21.052 -31.549 29.74 c -0.822 0.615 -1.635 1.24 -2.467 1.842 c -31.012 22.428 -69.08 35.67 -110.192 35.67 C 104.559 396.991 20 312.433 20 208.496 c 0 -16.276 2.085 -32.073 5.983 -47.148 c 1.463 -5.657 3.174 -11.215 5.136 -16.655 c 0.012 -0.032 0.022 -0.065 0.034 -0.098 c 0.014 0.006 0.029 0.011 0.044 0.018 c 5.242 2.287 10.938 3.498 16.78 3.498 c 8.291 0 16.021 -2.425 22.539 -6.588 c 11.688 -7.466 19.461 -20.544 19.461 -35.412 c 0 -11.617 -4.733 -22.387 -12.731 -30.139 c -0.451 -0.437 -0.906 -0.869 -1.377 -1.286 c 32.732 -32.446 77.26 -53.009 126.502 -54.589 c 3.157 14.763 11.764 27.746 24.107 36.418 c -8.064 17.495 -7.341 38.179 2.48 55.19 c 9.771 16.925 27.278 27.985 46.567 29.748 c 1.761 19.188 12.729 36.747 29.744 46.57 c 9.114 5.262 19.466 8.043 29.936 8.042 c 8.82 -0.001 17.392 -1.897 25.258 -5.544 c 8.676 12.343 21.661 20.947 36.427 24.102 C 396.436 228.84 394.398 242.665 390.948 255.926 z" stroke-linecap="round"/>
</g>
		<g transform="matrix(1 0 0 1 37.9795 51.7635)" id="Capa_1">
<path style="stroke: none; stroke-width: 1; stroke-dasharray: none; stroke-linecap: butt; stroke-dashoffset: 0; stroke-linejoin: miter; stroke-miterlimit: 4; is-custom-font: none; font-file-url: none; fill: rgb(0,0,0); fill-rule: nonzero; opacity: 1;" transform=" translate(-246.475, -260.259)" d="M 246.475 314.259 c 29.775 0 54 -24.224 54 -54 c 0 -12.961 -4.593 -24.868 -12.233 -34.185 c -9.911 -12.087 -24.952 -19.815 -41.767 -19.815 c -29.775 0 -54 24.224 -54 54 c 0 13.232 4.792 25.361 12.721 34.762 C 215.11 306.774 229.932 314.259 246.475 314.259 z M 246.475 226.259 c 18.748 0 34 15.252 34 34 c 0 18.747 -15.252 34 -34 34 c -18.748 0 -34 -15.253 -34 -34 C 212.475 241.511 227.727 226.259 246.475 226.259 z" stroke-linecap="round"/>
</g>
</g>
</g>
</svg>